HIERARCHY
ROOT Hips
{
  OFFSET 3.26218 96.8769 -1.78668
  CHANNELS 6 Xposition Yposition Zposition Zrotation Xrotation Yrotation
  JOINT Spine
  {
    OFFSET 0 11.0026 -2.28207
    CHANNELS 6 Xposition Yposition Zposition Zrotation Xrotation Yrotation
    JOINT Spine1
    {
      OFFSET 0 10.9693 0
      CHANNELS 6 Xposition Yposition Zposition Zrotation Xrotation Yrotation
      JOINT Spine2
      {
        OFFSET 0 10.9693 0
        CHANNELS 6 Xposition Yposition Zposition Zrotation Xrotation Yrotation
        JOINT Spine3
        {
          OFFSET 0 10.9693 0
          CHANNELS 6 Xposition Yposition Zposition Zrotation Xrotation Yrotation
          JOINT Neck
          {
            OFFSET 0 14.1034 1.41034
            CHANNELS 6 Xposition Yposition Zposition Zrotation Xrotation Yrotation
            JOINT Neck1
            {
              OFFSET 0 4.78292 0
              CHANNELS 6 Xposition Yposition Zposition Zrotation Xrotation Yrotation
              JOINT Head
              {
                OFFSET 0 4.78292 0
                CHANNELS 6 Xposition Yposition Zposition Zrotation Xrotation Yrotation
                End Site
                {
                  OFFSET 0 9.72808 0
                }
              }
            }
          }
          JOINT RightShoulder
          {
            OFFSET 0 10.0739 5.27092
            CHANNELS 6 Xposition Yposition Zposition Zrotation Xrotation Yrotation
            JOINT RightArm
            {
              OFFSET 0 20.7223 0
              CHANNELS 6 Xposition Yposition Zposition Zrotation Xrotation Yrotation
              JOINT RightForeArm
              {
                OFFSET 0 28.842 0
                CHANNELS 6 Xposition Yposition Zposition Zrotation Xrotation Yrotation
                JOINT RightHand
                {
                  OFFSET 0 25.0424 0
                  CHANNELS 6 Xposition Yposition Zposition Zrotation Xrotation Yrotation
                  JOINT RightHandThumb1
                  {
                    OFFSET -3.04472 3.62624 2.69644
                    CHANNELS 6 Xposition Yposition Zposition Zrotation Xrotation Yrotation
                    End Site
                    {
                      OFFSET 0 0 0
                    }
                  }
                  JOINT RightHandMiddle1
                  {
                    OFFSET 0 9.66998 -0.061987
                    CHANNELS 6 Xposition Yposition Zposition Zrotation Xrotation Yrotation
                    End Site
                    {
                      OFFSET 0 0 0
                    }
                  }
                }
              }
            }
          }
          JOINT LeftShoulder
          {
            OFFSET 0 10.0739 5.27092
            CHANNELS 6 Xposition Yposition Zposition Zrotation Xrotation Yrotation
            JOINT LeftArm
            {
              OFFSET 0 20.7223 0
              CHANNELS 6 Xposition Yposition Zposition Zrotation Xrotation Yrotation
              JOINT LeftForeArm
              {
                OFFSET 0 28.842 0
                CHANNELS 6 Xposition Yposition Zposition Zrotation Xrotation Yrotation
                JOINT LeftHand
                {
                  OFFSET 0 25.0424 0
                  CHANNELS 6 Xposition Yposition Zposition Zrotation Xrotation Yrotation
                  JOINT LeftHandThumb1
                  {
                    OFFSET 3.04472 3.62624 2.69644
                    CHANNELS 6 Xposition Yposition Zposition Zrotation Xrotation Yrotation
                    End Site
                    {
                      OFFSET 0 0 0
                    }
                  }
                  JOINT LeftHandMiddle1
                  {
                    OFFSET 0 9.66998 -0.061987
                    CHANNELS 6 Xposition Yposition Zposition Zrotation Xrotation Yrotation
                    End Site
                    {
                      OFFSET 0 0 0
                    }
                  }
                }
              }
            }
          }
        }
      }
    }
  }
  JOINT RightUpLeg
  {
    OFFSET -10.3008 0 0
    CHANNELS 6 Xposition Yposition Zposition Zrotation Xrotation Yrotation
    JOINT RightLeg
    {
      OFFSET 0 -44.9556 0
      CHANNELS 6 Xposition Yposition Zposition Zrotation Xrotation Yrotation
      JOINT RightFoot
      {
        OFFSET 0 -44.3497 0
        CHANNELS 6 Xposition Yposition Zposition Zrotation Xrotation Yrotation
        JOINT RightForeFoot
        {
          OFFSET 0 -4.35574 0
          CHANNELS 6 Xposition Yposition Zposition Zrotation Xrotation Yrotation
          JOINT RightToeBase
          {
            OFFSET 0 0 17.0584
            CHANNELS 6 Xposition Yposition Zposition Zrotation Xrotation Yrotation
            End Site
            {
              OFFSET 0 0 6.41607
            }
          }
        }
      }
    }
  }
  JOINT LeftUpLeg
  {
    OFFSET 10.3008 0 0
    CHANNELS 6 Xposition Yposition Zposition Zrotation Xrotation Yrotation
    JOINT LeftLeg
    {
      OFFSET 0 -44.9556 0
      CHANNELS 6 Xposition Yposition Zposition Zrotation Xrotation Yrotation
      JOINT LeftFoot
      {
        OFFSET 0 -44.3497 0
        CHANNELS 6 Xposition Yposition Zposition Zrotation Xrotation Yrotation
        JOINT LeftForeFoot
        {
          OFFSET 0 -4.35574 0
          CHANNELS 6 Xposition Yposition Zposition Zrotation Xrotation Yrotation
          JOINT LeftToeBase
          {
            OFFSET 0 0 17.0584
            CHANNELS 6 Xposition Yposition Zposition Zrotation Xrotation Yrotation
            End Site
            {
              OFFSET 0 0 7.80259
            }
          }
        }
      }
    }
  }
}
MOTION
Frames:	4
Frame Time:	0.00833333
3.26218 96.8769 -1.78668 2.57794 -12.7049 -0.836385 8.88178e-016 11.0026 -2.28207 -2.22325 7.37859 -0.136908 0 10.9693 -8.88178e-016 -0.309238 5.06757 0.151217 8.88178e-016 10.9693 -8.88178e-016 -0.320922 4.66382 1.0208 -4.44089e-016 10.9693 0 0.2503 2.24386 -0.111362 0 14.1034 1.41034 -1.66992 -0.611605 0.0395403 0 4.78292 0 -0.378073 -0.82683 -4.64304 -8.88178e-016 4.78292 0 -0.1369 -12.5732 -0.349217 -4.44089e-016 10.0739 5.27092 84.6196 -22.6664 -2.0786 0 20.7223 0 17.7779 12.4291 43.7466 1.42109e-014 28.842 1.42109e-014 -1.7923e-007 29.7464 -24.5157 0 25.0424 0 6.34982 -19.7609 3.37957e-015 -3.04472 3.62624 2.69644 -3.68161e-016 45.2637 -4.51883e-015 0 9.66998 -0.061987 -9.93923e-016 1.59028e-015 -6.36111e-015 -4.44089e-016 10.0739 5.27092 -88.0065 -20.2479 0.690169 0 20.7223 0 -6.1321 17.8716 -30.4632 2.84217e-014 28.842 -7.10543e-015 -5.1347e-007 23.0314 23.5337 5.68434e-014 25.0424 0 -5.45721 -9.30556 -6.04307e-016 3.04472 3.62624 2.69644 -3.26701e-016 45.2637 5.64853e-016 0 9.66998 -0.061987 7.45443e-017 -1.59028e-015 3.97569e-016 -10.3008 -1.42109e-014 3.55271e-015 -10.3673 15.554 -5.39597 3.55271e-015 -44.9556 0 0 6.55203 -0 3.55271e-015 -44.3497 -1.77636e-015 1.19222 -9.30304 7.94943 3.55271e-015 -4.35574 0 -6.4838e-016 -4.96962e-017 -0 0 -2.22045e-016 17.0584 -7.08366e-016 -16.997 -2.07864e-016 10.3008 0 0 -2.43682 18.7272 6.6783 0 -44.9556 1.77636e-015 -9.47312e-018 -0.682578 -7.95195e-016 0 -44.3497 1.77636e-015 1.25911 -5.99898 2.12886 -1.77636e-015 -4.35574 0 -6.33626e-016 0 -0 -3.55271e-015 -8.88178e-016 17.0584 -8.72983e-016 -8.99668 -1.61009e-015 
3.26172 96.8766 -1.78354 2.57808 -12.7014 -0.834906 0 11.0026 -2.28207 -2.22292 7.37467 -0.137449 0 10.9693 8.88178e-016 -0.309307 5.06679 0.151276 0 10.9693 0 -0.320931 4.6612 1.02173 4.44089e-016 10.9693 3.55271e-015 0.251346 2.24482 -0.111267 0 14.1034 1.41034 -1.674 -0.606816 0.0419683 0 4.78292 0 -0.376992 -0.832268 -4.64084 -4.44089e-016 4.78292 0 -0.138224 -12.5707 -0.349072 0 10.0739 5.27092 84.621 -22.6655 -2.07797 0 20.7223 0 17.7781 12.4294 43.7331 0 28.842 0 8.9055e-008 29.744 -24.52 2.84217e-014 25.0424 7.10543e-015 6.35519 -19.7594 2.19181e-007 -3.04472 3.62624 2.69644 7.95139e-016 45.2637 -0 2.84217e-014 9.66998 -0.061987 -9.93923e-016 -7.95139e-016 -3.18055e-015 0 10.0739 5.27092 -88.0053 -20.2463 0.690531 0 20.7223 0 -6.14711 17.8731 -30.4757 2.84217e-014 28.842 7.10543e-015 1.12242e-006 23.0373 23.5423 0 25.0424 0 -5.45116 -9.30069 7.82334e-007 3.04472 3.62624 2.69644 1.05465e-015 45.2637 -1.69456e-015 -2.84217e-014 9.66998 -0.061987 2.48481e-017 1.59028e-015 3.97569e-016 -10.3008 -1.42109e-014 0 -10.3665 15.5509 -5.39196 0 -44.9556 8.88178e-016 -6.95746e-016 6.55693 -0 0 -44.3497 -1.77636e-015 1.1896 -9.30441 7.94107 0 -4.35574 0 1.41945e-015 0 -0 3.55271e-015 0 17.0584 2.39305e-015 -17.0021 6.23609e-016 10.3008 0 0 -2.43627 18.7245 6.67797 0 -44.9556 -1.77636e-015 9.93923e-017 -0.680178 -0 0 -44.3497 0 1.25986 -6.00167 2.12934 1.77636e-015 -4.35574 0 -4.96962e-016 -9.93923e-017 1.59028e-015 -3.55271e-015 0 17.0584 3.12465e-017 -8.99314 3.22014e-015 
3.26059 96.8769 -1.77864 2.57823 -12.6979 -0.833428 8.88178e-016 11.0026 -2.28207 -2.2226 7.37075 -0.137991 4.44089e-016 10.9693 -2.66454e-015 -0.309375 5.06602 0.151335 0 10.9693 0 -0.320941 4.65858 1.02266 -4.44089e-016 10.9693 3.55271e-015 0.252391 2.24579 -0.111173 -4.44089e-016 14.1034 1.41034 -1.67809 -0.602027 0.0443965 -2.22045e-016 4.78292 0 -0.37591 -0.837705 -4.63864 -4.44089e-016 4.78292 0 -0.139549 -12.5683 -0.348927 4.44089e-016 10.0739 5.27092 84.6225 -22.6646 -2.07735 2.84217e-014 20.7223 3.55271e-015 17.7783 12.4296 43.7196 0 28.842 0 1.52143e-007 29.7416 -24.5242 5.68434e-014 25.0424 3.55271e-015 6.36056 -19.7579 2.92239e-007 -3.04472 3.62624 2.69644 5.82357e-015 45.2637 -9.03765e-015 0 9.66998 -0.061987 -1.76556e-031 -1.59028e-015 -6.36111e-015 4.44089e-016 10.0739 5.27092 -88.0041 -20.2447 0.690894 0 20.7223 -1.77636e-015 -6.16211 17.8746 -30.4882 0 28.842 7.10543e-015 1.80368e-006 23.0431 23.5509 -2.84217e-014 25.0424 -3.55271e-015 -5.4451 -9.29582 1.0431e-006 3.04472 3.62624 2.69644 6.10977e-015 45.2637 -1.10146e-014 2.84217e-014 9.66998 -0.061987 9.93923e-017 0 3.97569e-016 -10.3008 1.42109e-014 -3.55271e-015 -10.3658 15.5478 -5.38796 -3.55271e-015 -44.9556 0 -8.35352e-017 6.56182 1.60076e-015 0 -44.3497 0 1.18697 -9.30578 7.93271 0 -4.35574 -1.77636e-015 3.37779e-016 -4.96962e-017 -0 3.55271e-015 6.66134e-016 17.0584 3.08154e-016 -17.0072 -1.03938e-016 10.3008 1.42109e-014 -3.55271e-015 -2.43573 18.7219 6.67763 1.77636e-015 -44.9556 0 9.93923e-017 -0.677778 -0 0 -44.3497 0 1.26062 -6.00436 2.12981 -3.55271e-015 -4.35574 -1.77636e-015 3.47873e-016 9.93923e-017 -0 -1.77636e-015 -8.88178e-016 17.0584 -4.47266e-016 -8.98961 -0 
3.26028 96.8759 -1.776 2.57838 -12.6944 -0.831949 -8.88178e-016 11.0026 -2.28207 -2.22228 7.36684 -0.138533 0 10.9693 0 -0.309444 5.06524 0.151393 0 10.9693 -8.88178e-016 -0.32095 4.65596 1.02359 4.44089e-016 10.9693 3.55271e-015 0.253437 2.24675 -0.111078 0 14.1034 1.41034 -1.68217 -0.597238 0.0468252 -2.22045e-016 4.78292 0 -0.374829 -0.843142 -4.63644 0 4.78292 -3.55271e-015 -0.140873 -12.5659 -0.348782 0 10.0739 5.27092 84.6239 -22.6637 -2.07672 0 20.7223 0 17.7784 12.4299 43.706 0 28.842 0 1.00478e-008 29.7392 -24.5284 -2.84217e-014 25.0424 7.10543e-015 6.36594 -19.7565 2.19177e-007 -3.04472 3.62624 2.69644 -6.25762e-016 45.2637 4.51883e-015 -2.84217e-014 9.66998 -0.061987 3.97569e-016 0 3.18055e-015 0 10.0739 5.27092 -88.0029 -20.2431 0.691256 0 20.7223 1.77636e-015 -6.17712 17.8761 -30.5008 -2.84217e-014 28.842 -7.10543e-015 1.53019e-006 23.049 23.5595 -2.84217e-014 25.0424 3.55271e-015 -5.43904 -9.29095 7.82312e-007 3.04472 3.62624 2.69644 2.31359e-015 45.2637 -4.2364e-015 2.84217e-014 9.66998 -0.061987 -9.93923e-017 -3.18055e-015 3.97569e-016 -10.3008 0 0 -10.3651 15.5447 -5.38395 0 -44.9556 0 1.06188e-015 6.56671 -3.20156e-015 0 -44.3497 0 1.18435 -9.30715 7.92435 -3.55271e-015 -4.35574 1.77636e-015 4.94632e-016 4.96962e-017 -9.93923e-017 -3.55271e-015 -2.22045e-016 17.0584 4.64222e-016 -17.0123 -1.03941e-016 10.3008 0 0 -2.43518 18.7192 6.6773 1.77636e-015 -44.9556 0 1.87464e-017 -0.675378 1.59039e-015 1.77636e-015 -44.3497 0 1.26137 -6.00705 2.13028 0 -4.35574 -1.77636e-015 2.73329e-016 0 -0 3.55271e-015 -8.88178e-016 17.0584 6.83322e-016 -8.98607 -0 
